<svg viewBox="0 0 16 16" fill="none" xmlns="http://www.w3.org/2000/svg"><path d="M11.765 7.735C11.8352 7.80531 11.8747 7.90062 11.8747 8C11.8747 8.09938 11.8352 8.19469 11.765 8.265L7.265 12.765C7.19391 12.8312 7.09989 12.8673 7.00274 12.8656C6.90559 12.8639 6.8129 12.8245 6.74419 12.7558C6.67548 12.6871 6.63613 12.5944 6.63441 12.4973C6.6327 12.4001 6.66876 12.3061 6.735 12.235L10.5944 8.375H2C1.90054 8.375 1.80516 8.33549 1.73483 8.26517C1.66451 8.19484 1.625 8.09946 1.625 8C1.625 7.90054 1.66451 7.80516 1.73483 7.73484C1.80516 7.66451 1.90054 7.625 2 7.625H10.5944L6.735 3.765C6.66876 3.69391 6.6327 3.59989 6.63441 3.50274C6.63613 3.40559 6.67548 3.3129 6.74419 3.24419C6.8129 3.17548 6.90559 3.13613 7.00274 3.13441C7.09989 3.1327 7.19391 3.16876 7.265 3.235L11.765 7.735ZM13.5 2.125C13.4005 2.125 13.3052 2.16451 13.2348 2.23483C13.1645 2.30516 13.125 2.40054 13.125 2.5V13.5C13.125 13.5995 13.1645 13.6948 13.2348 13.7652C13.3052 13.8355 13.4005 13.875 13.5 13.875C13.5995 13.875 13.6948 13.8355 13.7652 13.7652C13.8355 13.6948 13.875 13.5995 13.875 13.5V2.5C13.875 2.40054 13.8355 2.30516 13.7652 2.23483C13.6948 2.16451 13.5995 2.125 13.5 2.125Z" fill="#181335"></path></svg>